<?xml version="1.0" encoding="UTF-8" standalone="no"?>
<!DOCTYPE svg PUBLIC "-//W3C//DTD SVG 1.1//EN" "http://www.w3.org/Graphics/SVG/1.1/DTD/svg11.dtd">
<svg xmlns:dc="http://purl.org/dc/elements/1.1/" version="1.1" xmlns="http://www.w3.org/2000/svg" xmlns:xl="http://www.w3.org/1999/xlink" viewBox="445.6529 56.7396 33.147256 36.943704" width="33.147256" height="36.943704">
  <defs/>
  <metadata> Produced by OmniGraffle 7.12.1 
    <dc:date>2020-09-21 07:49:27 +0000</dc:date>
  </metadata>
  <g id="Canvas_2" stroke="none" stroke-opacity="1" fill-opacity="1" stroke-dasharray="none" fill="none">
    <title>Canvas 2</title>
    <g id="Canvas_2: Layer 1">
      <title>Layer 1</title>
      <g id="Graphic_16">
        <path d="M 478.7959 89.6426 C 478.7509 91.7526 477.0489 93.5356 474.9429 93.6646 C 474.2399 93.7086 473.5729 93.5796 472.9789 93.3086 L 471.8389 92.5366 L 461.8909 85.7986 L 469.3609 76.5456 L 477.7039 86.7646 L 478.0119 87.1446 C 478.5209 87.8396 478.8119 88.7046 478.7959 89.6426 Z" fill="#0043a5"/>
      </g>
      <g id="Graphic_17">
        <path d="M 462.6992 68.3926 L 458.6252 71.8726 C 457.2102 73.0816 455.4522 73.7006 453.6782 73.7006 C 452.3402 73.7006 450.9972 73.3486 449.7892 72.6286 C 448.1642 71.6666 446.8262 70.2846 445.9082 68.6316 L 445.6532 68.1666 L 445.6532 61.7356 C 445.6532 58.9746 447.8922 56.7396 450.6532 56.7396 C 451.4542 56.7396 452.2342 56.9166 452.9372 57.2526 C 453.6442 57.5876 454.2792 58.0806 454.7852 58.6996 Z" fill="#0043a5"/>
      </g>
      <g id="Graphic_18">
        <path d="M 478.2539 65.5269 L 477.4529 66.5209 L 469.3609 76.5459 L 461.8909 85.7979 L 456.9319 91.9429 C 455.1809 94.1099 451.9399 94.2789 449.9749 92.3059 L 446.7609 89.0769 C 446.0539 88.3649 445.6529 87.3989 445.6529 86.3969 L 445.6529 68.1669 L 445.9079 68.6309 C 446.8259 70.2849 448.1639 71.6669 449.7889 72.6289 C 450.9969 73.3489 452.3399 73.6999 453.6779 73.6999 C 455.4519 73.6999 457.2099 73.0819 458.6249 71.8729 L 462.6989 68.3929 L 471.8749 60.5509 L 472.2549 60.2279 C 472.2639 60.2239 472.2719 60.2149 472.2749 60.2149 C 473.1369 59.5729 474.2519 59.2569 475.4439 59.4639 C 477.1469 59.7589 478.5049 61.1569 478.7549 62.8669 C 478.8969 63.8449 478.6979 64.7629 478.2539 65.5269 Z" fill="#00ccd6"/>
      </g>
    </g>
  </g>
</svg>
